<svg xmlns="http://www.w3.org/2000/svg" viewBox="0 0 256 256" width="64" height="64">
  <g fill="none">
    <path fill="#25D366" d="M128 0C57.3 0 0 57.3 0 128c0 22.6 5.9 44.7 17.1 64.2L0 256l66.4-17.1C86.7 250.1 107.8 256 128 256c70.7 0 128-57.3 128-128S198.7 0 128 0z"/>
    <path fill="#FFF" d="M128 46.5c-44.9 0-81.5 36.6-81.5 81.5 0 17.2 5.3 33.3 15.2 47.2l-10.1 27.8 29.1-7.5c13.2 9 28.8 13.8 45.1 13.8 44.9 0 81.5-36.6 81.5-81.5s-36.6-81.3-81.3-81.3zm45.9 111.6c-2.2 6.1-11.2 11.3-15.3 12-4 0.7-9.2 1-14.8-.9-3.4-1.1-7.7-2.5-13.3-5.1-23.4-10.1-38.7-33.4-39.8-35.1-1.1-1.6-9.5-12.6-9.5-24.1 0-11.5 6.1-17.2 8.2-19.5 2.1-2.3 4.6-2.9 6.1-2.9h4.3c1.3 0 3.1-.3 4.8 3.6s6.2 15 6.7 16.1c0.5 1.1 0.9 2.4 0.2 3.9-.7 1.5-1.1 2.4-2.2 3.7-1.1 1.3-2.3 2.9-3.3 3.9-1.1 1-2.2 2.2-1 4.3 1.2 2.1 5.2 8.6 11.2 14 7.7 6.9 14.2 9 16.3 10.1 2.1 1.1 3.3 1 4.6-.6 1.3-1.5 5.3-6.2 6.8-8.3 1.5-2.1 3-1.7 5-.9 2 .8 12.9 6 15.1 7.1 2.2 1.1 3.7 1.7 4.2 2.7.5 1.1.5 6.3-1.7 12.4z"/>
  </g>
</svg>
